# xmcd CD database file
# Copyright (C) 1995-1998 Ti Kan
#
# Track frame offsets:
#	150
#	13842
#	27892
#	36935
#	47857
#	59310
#	69125
#	84627
#	97482
#	109712
#	120685
#	131670
#	141900
#	154452
#	166037
#	176472
#	191765
#	202487
#	216170
#	229782
#	244025
#	256200
#	267107
#	277685
#	286225
#	303632
#	317795
#	333775
#	343422
#
# Disc length: 4775 seconds
#
# Revision: 1
# Processed by: cddbd v1.4PL0 Copyright (c) Steve Scherf et al.
# Submitted via: CDex 1.30Release
#
DISCID=b812a51d
DTITLE=Hank Snow - The Singing Ranger Vol. 3 [CD09 of 12)
DYEAR=1992
DGENRE=Country
TTITLE0=He'll Understand and Say Well Done 1964
TTITLE1=I Saw a Man 1964
TTITLE2=A Rich Man Am I 1964
TTITLE3=Jesus Wept 1964
TTITLE4=I'm Moving on to Glory 1964
TTITLE5=Gloryland March 1964
TTITLE6=Farther Along 1964
TTITLE7=Invisible Hands 1964
TTITLE8=The Last Mile of The Way 1964
TTITLE9=Sweet Hour of Prayer 1964
TTITLE10=These Things Shall Pass 1964
TTITLE11=His Hands 1964
TTITLE12=What Then 1966
TTITLE13=The Lord's Way of Sayin' Goodnight 1966
TTITLE14=Dear Lord, Remember Me 1966
TTITLE15=I See Jesus 1966
TTITLE16=My Religion's Not Old Fashioned 1966
TTITLE17=I'm Glad I'm On The Inside (Looking Out ) 1966
TTITLE18=The Runt 1966
TTITLE19=How Big is God 1966
TTITLE20=Shop Worn 1966
TTITLE21=A Man Who is Wise 1966
TTITLE22=This Train 1966
TTITLE23=I'll Go Marching Into Glory 1966
TTITLE24=I'd Rather Be On The Inside Looking Out 1976
TTITLE25=Lord It's Me Again 1976
TTITLE26=Lord I Do Believe 1976
TTITLE27=A Rich Man Am I 1976
TTITLE28=What Then 1976
EXTD=YEAR: 1992 ID3G:   2
EXTT0=
EXTT1=
EXTT2=
EXTT3=
EXTT4=
EXTT5=
EXTT6=
EXTT7=
EXTT8=
EXTT9=
EXTT10=
EXTT11=
EXTT12=
EXTT13=
EXTT14=
EXTT15=
EXTT16=
EXTT17=
EXTT18=
EXTT19=
EXTT20=
EXTT21=
EXTT22=
EXTT23=
EXTT24=
EXTT25=
EXTT26=
EXTT27=
EXTT28=
PLAYORDER=
